<?xml version="1.0" encoding="UTF-8"?>
<svg width="350px" height="350px" viewBox="0 0 350 350" version="1.1" xmlns="http://www.w3.org/2000/svg" xmlns:xlink="http://www.w3.org/1999/xlink">
    <title>logo</title>
    <g id="logo" stroke="none" stroke-width="1" fill="none" fill-rule="evenodd">
        <rect id="Rectangle" fill="#36ACFF" x="0" y="0" width="350" height="350" rx="50"></rect>
        <path d="M-0.198890442,191.916124 C20.6839013,192.66351 42.3741297,194.639964 64.8717946,197.845488 C83.8648584,200.551667 117.288664,205.785329 131.340258,205.785329 C147.745694,205.785329 160.931246,199.782177 165.328709,196.464328 C175.350028,188.903327 184.958725,175.34222 191.617639,160.936116 C204.960243,132.070305 216.688067,78.3533759 226.80111,-0.214670811 L49.8011096,-0.214670811 C22.1868721,-0.214670811 -0.198890442,22.1710917 -0.198890442,49.7853292 L-0.198890442,191.916124 L-0.198890442,191.916124 Z" id="Path" fill="#0066FF"></path>
        <path d="M241.75162,0.00168396119 C229.231214,72.75285 215.071218,125.037902 198.824696,157.566527 C187.186671,180.868065 170.775669,201.637204 153.156423,213.940002 C139.708393,223.33021 114.910279,230.785329 90.2117241,230.785329 C79.5664016,230.785329 63.4196395,229.292694 40.6915586,226.493168 L35.7217498,225.873481 L29.5445824,225.084387 L23.2917152,224.268382 L-0.000552327802,221.156042 L-0.000552327802,170.703042 L14.8024538,172.689054 L34.752847,175.341353 L40.5849779,176.09016 L45.7509268,176.738079 C66.1581905,179.264379 80.9659568,180.67432 89.2491216,180.77904 L90.2117241,180.785329 C98.40219,180.785329 106.475728,179.51384 113.773252,177.319968 C118.755084,175.822267 122.833112,174.020325 124.314097,173.088243 L124.531225,172.944904 C134.606198,165.909963 145.91835,151.593734 154.093555,135.225421 C167.219628,108.944527 179.644173,63.6663935 190.983019,0.00104156681 Z" id="Combined-Shape" fill="#FFFFFF" fill-rule="nonzero"></path>
        <path d="M122.561143,324.818965 C128.635512,325.511949 134.752173,326.26451 140.911125,327.076649 C168.087197,330.660173 215.911378,337.590593 236.016987,337.590593 C259.490572,337.590593 278.357012,329.641215 284.649087,325.247717 C298.98801,315.235434 312.736536,297.277809 322.264389,278.201237 C333.788167,255.128443 344.470103,220.065489 354.310198,173.012375 C356.771227,161.244286 359.81676,144.427193 363.446794,122.561096 L171.837027,122.561096 C144.22279,122.561096 121.837027,144.946858 121.837027,172.561096 C121.837027,172.640421 121.837216,172.719747 121.837594,172.799071 L122.561143,324.818965 L122.561143,324.818965 Z" id="Path" fill="#0066FF" transform="translate(242.522639, 230.075844) scale(-1, 1) rotate(-90.000000) translate(-242.522639, -230.075844) "></path>
        <path d="M460.860229,98.9408806 L81.9408806,98.9408806 L81.9408806,402.546255 L106.113281,403.346897 C134.279176,404.279812 163.551059,406.704618 193.927433,410.625724 L228.232596,415.209262 L234.485463,416.025268 L240.66263,416.814362 L245.632439,417.434049 C268.36052,420.233575 284.507282,421.72621 295.152605,421.72621 C319.851159,421.72621 344.649274,414.271091 358.097303,404.880883 C375.716549,392.578085 392.127551,371.808946 403.765576,348.507407 C416.301454,323.408198 427.450273,286.973216 437.608904,238.730971 L438.184072,235.977337 C442.544431,214.856546 448.535269,179.378755 456.216031,129.277998 L460.860229,98.9408806 Z M131.940881,148.940881 L402.554881,148.940881 L400.878138,159.46868 C395.967553,190.048897 391.991801,212.605766 388.975191,227.030515 L388.408035,229.724339 C379.13131,273.489537 369.211788,305.789307 359.034435,326.166301 C350.859231,342.534614 339.547078,356.850844 329.472105,363.885785 L329.254977,364.029123 C327.773992,364.961205 323.695964,366.763148 318.714132,368.260848 C311.416608,370.454721 303.343071,371.72621 295.152605,371.72621 L294.190002,371.719921 C285.906837,371.615201 271.099071,370.205259 250.691807,367.67896 L245.525859,367.03104 L239.693728,366.282234 L219.743334,363.629935 L203.315031,361.426821 L200.407593,361.047366 C178.18193,358.176747 156.474164,356.06462 135.283791,354.712474 L131.940881,354.504881 L131.940881,148.940881 Z" id="Path" fill="#FFFFFF" fill-rule="nonzero" transform="translate(271.400555, 260.333545) scale(-1, 1) rotate(-90.000000) translate(-271.400555, -260.333545) "></path>
        <path d="M198.824696,157.566527 C187.186671,180.868065 170.775669,201.637204 153.156423,213.940002 C139.708393,223.33021 114.910279,230.785329 90.2117241,230.785329 L89.3804069,230.785329 C78.2923946,230.705137 61.571291,229.104234 37.933239,226.151163 L34.2892834,225.692218 C31.9639072,225.397072 29.5749153,225.089588 27.0915019,224.766093 L10.9845867,222.625049 L-0.00059966717,221.151719 L-0.00059966717,170.711719 L29.8186464,174.696221 L34.752847,175.341353 C36.7544297,175.601072 38.6927075,175.849985 40.5849779,176.09016 L46.3030566,176.806045 C67.2777244,179.393676 82.177634,180.785329 90.2117241,180.785329 C98.40219,180.785329 106.475728,179.51384 113.773252,177.319968 L114.572927,177.074616 C119.452103,175.547455 123.335948,173.779517 124.531225,172.944904 C134.606198,165.909963 145.91835,151.593734 154.093555,135.225421 C167.150653,109.082627 179.513577,64.1417217 190.80418,1.00315957 L241.578983,1.00291242 C229.101085,73.2327646 214.996591,125.187318 198.824696,157.566527 Z" id="Combined-Shape" fill="#FFFFFF" fill-rule="nonzero"></path>
        <path d="M198.824696,157.566527 C187.186671,180.868065 170.775669,201.637204 153.156423,213.940002 C139.708393,223.33021 114.910279,230.785329 90.2117241,230.785329 L89.3804069,230.785329 C78.2923946,230.705137 61.571291,229.104234 37.933239,226.151163 L34.2892834,225.692218 C31.9639072,225.397072 29.5749153,225.089588 27.0915019,224.766093 L10.9845867,222.625049 L-0.00059966717,221.151719 L-0.00059966717,170.711719 L29.8186464,174.696221 L34.752847,175.341353 C36.7544297,175.601072 38.6927075,175.849985 40.5849779,176.09016 L46.3030566,176.806045 C67.2777244,179.393676 82.177634,180.785329 90.2117241,180.785329 C98.40219,180.785329 106.475728,179.51384 113.773252,177.319968 L114.572927,177.074616 C119.452103,175.547455 123.335948,173.779517 124.531225,172.944904 C134.606198,165.909963 145.91835,151.593734 154.093555,135.225421 C167.150653,109.082627 179.513577,64.1417217 190.80418,1.00315957 L241.578983,1.00291242 C229.101085,73.2327646 214.996591,125.187318 198.824696,157.566527 Z" id="Combined-Shape" fill="#FFFFFF" fill-rule="nonzero"></path>
        <path d="M116.028852,217.602458 C139.502437,217.602458 158.368877,209.65308 164.660952,205.259582 C169.022677,202.213968 173.329772,198.43317 177.480059,194.109327" id="Path" stroke="#04D16B" stroke-width="50" transform="translate(146.754456, 205.855892) scale(1, -1) rotate(90.000000) translate(-146.754456, -205.855892) "></path>
    </g>
</svg>