<?xml version="1.0" encoding="UTF-8" standalone="no"?>
<svg
   width="350"
   height="350"
   viewBox="0 0 350 350"
   version="1.1"
   id="svg5"
   xmlns="http://www.w3.org/2000/svg"
   xmlns:svg="http://www.w3.org/2000/svg"
   xmlns:rdf="http://www.w3.org/1999/02/22-rdf-syntax-ns#"
   xmlns:cc="http://creativecommons.org/ns#"
   xmlns:dc="http://purl.org/dc/elements/1.1/">
  <defs
     id="defs5" />
  <title
     id="title1">logo</title>
  <g
     id="logo"
     stroke="none"
     stroke-width="1"
     fill="none"
     fill-rule="evenodd">
    <rect
       id="Rectangle"
       fill="#36ACFF"
       x="0"
       y="0"
       width="350"
       height="350"
       rx="50"
       style="fill:#63c228;fill-opacity:1" />
    <path
       d="m -0.19889044,191.91612 c 20.88279144,0.74739 42.57302044,2.72384 65.07068544,5.92937 18.993063,2.70618 52.416865,7.93984 66.468465,7.93984 16.40543,0 29.59099,-6.00315 33.98845,-9.321 10.02132,-7.561 19.63001,-21.12211 26.28893,-35.52821 13.3426,-28.86582 25.07043,-82.582744 35.18347,-161.15079081 h -177 c -27.614238,0 -50.00000044,22.38576281 -50.00000044,49.99999981 z"
       id="Path"
       fill="#0066FF"
       style="fill:#256706;fill-opacity:1" />
    <path
       d="M 241.75162,0.00168396 C 229.23121,72.75285 215.07122,125.0379 198.8247,157.56653 187.18667,180.86806 170.77567,201.6372 153.15642,213.94 c -13.44803,9.39021 -38.24614,16.84533 -62.944696,16.84533 -10.645322,0 -26.792084,-1.49264 -49.520165,-4.29216 l -4.969809,-0.61969 -6.177168,-0.78909 -6.252867,-0.81601 -23.2922673278,-3.11234 v -50.453 l 14.8030063278,1.98601 19.950393,2.6523 5.832131,0.74881 5.165949,0.64792 c 20.407264,2.5263 35.21503,3.93624 43.498195,4.04096 l 0.962602,0.006 c 8.190466,0 16.264006,-1.27149 23.561526,-3.46536 4.98183,-1.4977 9.05986,-3.29964 10.54085,-4.23173 l 0.21713,-0.14334 c 10.07497,-7.03494 21.38712,-21.35117 29.56232,-37.71948 13.12608,-26.28089 25.55062,-71.559027 36.88947,-135.22437843 z"
       id="Combined-Shape"
       fill="#ffffff"
       fill-rule="nonzero" />
    <path
       d="m 122.56114,324.81896 c 6.07437,0.69299 12.19103,1.44555 18.34998,2.25769 27.17608,3.58352 75.00026,10.51394 95.10587,10.51394 23.47358,0 42.34002,-7.94938 48.6321,-12.34287 14.33892,-10.01229 28.08745,-27.96991 37.6153,-47.04648 11.52378,-23.0728 22.20571,-58.13575 32.04581,-105.18887 2.46103,-11.76808 5.50656,-28.58518 9.13659,-50.45127 H 171.83703 c -27.61424,0 -50,22.38576 -50,50 0,0.0793 1.9e-4,0.15865 5.6e-4,0.23797 z"
       id="path1"
       fill="#0066FF"
       transform="matrix(0,-1,-1,0,472.59848,472.59848)"
       style="fill:#256706;fill-opacity:1" />
    <path
       d="M 460.86023,98.940881 H 81.940881 V 402.54625 l 24.172399,0.80065 c 28.1659,0.93291 57.43778,3.35772 87.81415,7.27882 l 34.30517,4.58354 6.25286,0.81601 6.17717,0.78909 4.96981,0.61969 c 22.72808,2.79952 38.87484,4.29216 49.52016,4.29216 24.69856,0 49.49667,-7.45512 62.9447,-16.84533 17.61925,-12.3028 34.03025,-33.07193 45.66828,-56.37347 12.53587,-25.09921 23.68469,-61.53419 33.84332,-109.77644 l 0.57517,-2.75363 c 4.36036,-21.12079 10.3512,-56.59859 18.03196,-106.69934 z M 131.94088,148.94088 h 270.614 l -1.67674,10.5278 c -4.91059,30.58022 -8.88634,53.13709 -11.90295,67.56183 l -0.56716,2.69383 c -9.27672,43.7652 -19.19624,76.06497 -29.3736,96.44196 -8.1752,16.36831 -19.48735,30.68454 -29.56233,37.71948 l -0.21712,0.14334 c -1.48099,0.93208 -5.55902,2.73403 -10.54085,4.23173 -7.29752,2.19387 -15.37106,3.46536 -23.56153,3.46536 l -0.9626,-0.006 c -8.28316,-0.10472 -23.09093,-1.51466 -43.49819,-4.04096 l -5.16595,-0.64792 -5.83213,-0.74881 -19.9504,-2.6523 -16.4283,-2.20311 -2.90744,-0.37945 c -22.22566,-2.87062 -43.93343,-4.98275 -65.1238,-6.3349 l -3.34291,-0.20759 z"
       id="path2"
       fill="#ffffff"
       fill-rule="nonzero"
       transform="matrix(0,-1,-1,0,531.7341,531.7341)" />
    <path
       d="m 198.8247,157.56653 c -11.63803,23.30153 -28.04903,44.07067 -45.66828,56.37347 -13.44803,9.39021 -38.24614,16.84533 -62.944696,16.84533 h -0.831317 c -11.088012,-0.0802 -27.809116,-1.6811 -51.447168,-4.63417 l -3.643956,-0.45894 c -2.325376,-0.29515 -4.714368,-0.60263 -7.197781,-0.92613 L 10.984587,222.62505 -5.9966717e-4,221.15172 v -50.44 l 29.81924566717,3.9845 4.934201,0.64513 c 2.001583,0.25972 3.93986,0.50863 5.832131,0.74881 l 5.718079,0.71588 c 20.974667,2.58764 35.874577,3.97929 43.908667,3.97929 8.190466,0 16.264006,-1.27149 23.561526,-3.46536 l 0.79968,-0.24535 c 4.87917,-1.52716 8.76302,-3.2951 9.9583,-4.12972 10.07497,-7.03494 21.38712,-21.35117 29.56232,-37.71948 13.0571,-26.14279 25.42003,-71.083698 36.71063,-134.2222604 l 50.7748,-2.472e-4 C 229.10108,73.232765 214.99659,125.18732 198.8247,157.56653 Z"
       id="path3"
       fill="#ffffff"
       fill-rule="nonzero" />
    <path
       d="m 198.8247,157.56653 c -11.63803,23.30153 -28.04903,44.07067 -45.66828,56.37347 -13.44803,9.39021 -38.24614,16.84533 -62.944696,16.84533 h -0.831317 c -11.088012,-0.0802 -27.809116,-1.6811 -51.447168,-4.63417 l -3.643956,-0.45894 c -2.325376,-0.29515 -4.714368,-0.60263 -7.197781,-0.92613 L 10.984587,222.62505 -5.9966717e-4,221.15172 v -50.44 l 29.81924566717,3.9845 4.934201,0.64513 c 2.001583,0.25972 3.93986,0.50863 5.832131,0.74881 l 5.718079,0.71588 c 20.974667,2.58764 35.874577,3.97929 43.908667,3.97929 8.190466,0 16.264006,-1.27149 23.561526,-3.46536 l 0.79968,-0.24535 c 4.87917,-1.52716 8.76302,-3.2951 9.9583,-4.12972 10.07497,-7.03494 21.38712,-21.35117 29.56232,-37.71948 13.0571,-26.14279 25.42003,-71.083698 36.71063,-134.2222604 l 50.7748,-2.472e-4 C 229.10108,73.232765 214.99659,125.18732 198.8247,157.56653 Z"
       id="path4"
       fill="#ffffff"
       fill-rule="nonzero" />
    <path
       d="m 116.02885,217.60246 c 23.47359,0 42.34003,-7.94938 48.6321,-12.34288 4.36173,-3.04561 8.66882,-6.82641 12.81911,-11.15025"
       id="path5"
       stroke="#04D16B"
       stroke-width="50"
       transform="matrix(0,-1,-1,0,352.61035,352.61035)"
       style="stroke:#36acff;stroke-opacity:1" />
  </g>
  <metadata
     id="metadata5">
    <rdf:RDF>
      <cc:Work
         rdf:about="">
        <dc:title>logo</dc:title>
      </cc:Work>
    </rdf:RDF>
  </metadata>
</svg>
